# xmcd
#
# Track frame offsets:
#	150
#	24615
#	43068
#	59878
#	75609
#	91524
#	112444
#	123701
#	142664
#	165272
#	180521
#	199925
#	216337
#	231991
#	247123
#	271694
#	288958
#	306955
#	321999
#	343420
#
# Disc length: 4791 seconds
#
# Revision: 0
# Processed by: cddbd v1.5.2PL0 Copyright (c) Steve Scherf et al.
# Submitted via: audiograbber 1.83.01
#
DISCID=3212b514
DTITLE=Various Artist - 100 Hits Rock Jukebox CD4
DYEAR=1900
DGENRE=Rock
TTITLE0=Deep Purple - King Of Dreams
TTITLE1=Europe - Rock The Night
TTITLE2=Love/Hate - Wasted in America
TTITLE3=Iggy and The Stooges - Search and Destroy (Iggy Pop Mix)
TTITLE4=Judas Priest - Living After Midnight
TTITLE5=Saxon - Solid Ball Of Rock
TTITLE6=Ram Jam - Black Betty
TTITLE7=Meat Loaf - You Took The Words Right Out Of My Mouth (Hot Summer Night)
TTITLE8=Boston - Peace Of Mind
TTITLE9=Journey - Any Way You Want It
TTITLE10=Bad English - When I See You Smile
TTITLE11=Kenny Loggins and Steve Perry - Don't Fight It
TTITLE12=Kansas - Carry On Wayward Son
TTITLE13=REO Speedwagon - Keep On Loving You
TTITLE14=Jim Steinman - Rock and Roll Dreams Come Through
TTITLE15=Roachford - Cuddly Toy
TTITLE16=The Psychedelic Furs - Pretty In Pink
TTITLE17=J J Cale - Lean On Me
TTITLE18=Ian Hunter - Once Bitten, Twice Shy
TTITLE19=Family - In My Own Time
EXTD=
EXTT0=
EXTT1=
EXTT2=
EXTT3=
EXTT4=
EXTT5=
EXTT6=
EXTT7=
EXTT8=
EXTT9=
EXTT10=
EXTT11=
EXTT12=
EXTT13=
EXTT14=
EXTT15=
EXTT16=
EXTT17=
EXTT18=
EXTT19=
PLAYORDER=
